<svg width="60" height="60" viewBox="0 0 60 60" fill="none" xmlns="http://www.w3.org/2000/svg">
<path d="M5.87052 52.6942C5.4409 52.6942 5.06834 52.5944 4.75284 52.3946C4.43734 52.1948 4.1935 51.9374 4.02133 51.6222C3.82779 51.3173 3.72234 50.9791 3.70496 50.6077C3.68763 50.2362 3.79308 49.8597 4.02133 49.4782L28.1518 7.81243C28.38 7.43922 28.6525 7.16975 28.9692 7.004C29.2859 6.83825 29.6303 6.75537 30.0025 6.75537C30.3747 6.75537 30.7186 6.83825 31.0343 7.004C31.3499 7.16975 31.6219 7.43922 31.8501 7.81243L55.9806 49.4782C56.2088 49.8597 56.3143 50.2362 56.297 50.6077C56.2796 50.9791 56.1741 51.3173 55.9806 51.6222C55.8067 51.9334 55.5624 52.1898 55.2478 52.3916C54.9331 52.5933 54.561 52.6942 54.1314 52.6942H5.87052ZM30.2619 45.1576C30.802 45.1576 31.2577 44.9683 31.6289 44.5897C32.0001 44.2112 32.1858 43.7519 32.1858 43.2118C32.1858 42.6717 31.9965 42.2186 31.618 41.8523C31.2394 41.4861 30.7801 41.3029 30.24 41.3029C29.6999 41.3029 29.2442 41.4897 28.873 41.8632C28.5018 42.2368 28.3161 42.6937 28.3161 43.2337C28.3161 43.7738 28.5054 44.2295 28.884 44.6007C29.2625 44.9719 29.7218 45.1576 30.2619 45.1576ZM30.2619 38.2499C30.7963 38.2499 31.2405 38.0702 31.5947 37.7109C31.9489 37.3515 32.126 36.9062 32.126 36.3749V26.2445C32.126 25.7132 31.9452 25.2679 31.5838 24.9086C31.2223 24.5492 30.7744 24.3695 30.24 24.3695C29.7056 24.3695 29.2614 24.5492 28.9072 24.9086C28.553 25.2679 28.376 25.7132 28.376 26.2445V36.3749C28.376 36.9062 28.5567 37.3515 28.9181 37.7109C29.2796 38.0702 29.7276 38.2499 30.2619 38.2499Z" fill="#FFB800"/>
</svg>
