<svg width="24" height="24" viewBox="0 0 24 24" fill="none" xmlns="http://www.w3.org/2000/svg">
<path d="M3.85163 18.3408C3.61123 18.3408 3.40918 18.2585 3.2455 18.094C3.08183 17.9295 3 17.7264 3 17.4848C3 17.2431 3.08183 17.0415 3.2455 16.8799C3.40918 16.7183 3.61123 16.6375 3.85163 16.6375H20.3516C20.592 16.6375 20.7941 16.7198 20.9578 16.8843C21.1214 17.0488 21.2033 17.2519 21.2033 17.4935C21.2033 17.7352 21.1214 17.9368 20.9578 18.0984C20.7941 18.26 20.592 18.3408 20.3516 18.3408H3.85163ZM3.85163 13.025C3.61123 13.025 3.40918 12.9427 3.2455 12.7782C3.08183 12.6137 3 12.4106 3 12.169C3 11.9274 3.08183 11.7257 3.2455 11.5641C3.40918 11.4025 3.61123 11.3217 3.85163 11.3217H20.3516C20.592 11.3217 20.7941 11.404 20.9578 11.5685C21.1214 11.733 21.2033 11.9361 21.2033 12.1777C21.2033 12.4194 21.1214 12.621 20.9578 12.7826C20.7941 12.9442 20.592 13.025 20.3516 13.025H3.85163ZM3.85163 7.70925C3.61123 7.70925 3.40918 7.62699 3.2455 7.46247C3.08183 7.29796 3 7.09487 3 6.85322C3 6.61159 3.08183 6.40898 3.2455 6.24538C3.40918 6.08179 3.61123 6 3.85163 6H20.3516C20.592 6 20.7941 6.08326 20.9578 6.24977C21.1214 6.41627 21.2033 6.62035 21.2033 6.862C21.2033 7.10363 21.1214 7.30525 20.9578 7.46685C20.7941 7.62845 20.592 7.70925 20.3516 7.70925H3.85163Z" fill="#445A7A"/>
</svg>
