<svg width="24" height="24" viewBox="0 0 24 24" fill="none" xmlns="http://www.w3.org/2000/svg">
<path d="M11.325 17H12.825V11H11.325V17ZM12 9.15C12.2333 9.15 12.4292 9.075 12.5875 8.925C12.7458 8.775 12.825 8.58333 12.825 8.35C12.825 8.11667 12.7458 7.91667 12.5875 7.75C12.4292 7.58333 12.2333 7.5 12 7.5C11.7667 7.5 11.5708 7.58333 11.4125 7.75C11.2542 7.91667 11.175 8.11667 11.175 8.35C11.175 8.58333 11.2542 8.775 11.4125 8.925C11.5708 9.075 11.7667 9.15 12 9.15V9.15ZM12 22C10.6333 22 9.34167 21.7375 8.125 21.2125C6.90833 20.6875 5.84583 19.9708 4.9375 19.0625C4.02917 18.1542 3.3125 17.0917 2.7875 15.875C2.2625 14.6583 2 13.3583 2 11.975C2 10.6083 2.2625 9.31667 2.7875 8.1C3.3125 6.88333 4.02917 5.825 4.9375 4.925C5.84583 4.025 6.90833 3.3125 8.125 2.7875C9.34167 2.2625 10.6417 2 12.025 2C13.3917 2 14.6833 2.2625 15.9 2.7875C17.1167 3.3125 18.175 4.025 19.075 4.925C19.975 5.825 20.6875 6.88333 21.2125 8.1C21.7375 9.31667 22 10.6167 22 12C22 13.3667 21.7375 14.6583 21.2125 15.875C20.6875 17.0917 19.975 18.1542 19.075 19.0625C18.175 19.9708 17.1167 20.6875 15.9 21.2125C14.6833 21.7375 13.3833 22 12 22Z" fill="#445A7A"/>
</svg>
