<svg width="32" height="32" viewBox="0 0 32 32" fill="none" xmlns="http://www.w3.org/2000/svg">
<path d="M15.9996 17.5914L9.09523 24.4957C8.86865 24.7223 8.60343 24.8355 8.29956 24.8355C7.9957 24.8355 7.73047 24.7223 7.5039 24.4957C7.27734 24.2691 7.16406 24.0039 7.16406 23.7C7.16406 23.3962 7.27734 23.131 7.5039 22.9044L14.4083 16.0001L7.5039 9.09572C7.27734 8.86914 7.16406 8.60392 7.16406 8.30005C7.16406 7.99618 7.27734 7.73096 7.5039 7.50438C7.73047 7.27783 7.9957 7.16455 8.29956 7.16455C8.60343 7.16455 8.86865 7.27783 9.09523 7.50438L15.9996 14.4087L22.9039 7.50438C23.1305 7.27783 23.3957 7.16455 23.6996 7.16455C24.0034 7.16455 24.2687 7.27783 24.4952 7.50438C24.7218 7.73096 24.8351 7.99618 24.8351 8.30005C24.8351 8.60392 24.7218 8.86914 24.4952 9.09572L17.5909 16.0001L24.4952 22.9044C24.7218 23.131 24.8351 23.3962 24.8351 23.7C24.8351 24.0039 24.7218 24.2691 24.4952 24.4957C24.2687 24.7223 24.0034 24.8355 23.6996 24.8355C23.3957 24.8355 23.1305 24.7223 22.9039 24.4957L15.9996 17.5914Z" fill="#FAFAFF" fill-opacity="0.6"/>
</svg>
