<svg width="24" height="24" viewBox="0 0 24 24" fill="none" xmlns="http://www.w3.org/2000/svg">
<path d="M13.6496 22H10.3496C10.1663 22 10.0038 21.9417 9.86211 21.825C9.72044 21.7083 9.63294 21.5583 9.59961 21.375L9.19961 18.85C8.88294 18.7333 8.54961 18.575 8.19961 18.375C7.84961 18.175 7.54128 17.9667 7.27461 17.75L4.94961 18.825C4.76628 18.9083 4.58294 18.9208 4.39961 18.8625C4.21628 18.8042 4.07461 18.6833 3.97461 18.5L2.32461 15.575C2.22461 15.4083 2.19961 15.2333 2.24961 15.05C2.29961 14.8667 2.39961 14.7167 2.54961 14.6L4.69961 13.025C4.66628 12.875 4.64544 12.7042 4.63711 12.5125C4.62878 12.3208 4.62461 12.15 4.62461 12C4.62461 11.85 4.62878 11.6792 4.63711 11.4875C4.64544 11.2958 4.66628 11.125 4.69961 10.975L2.54961 9.4C2.39961 9.28333 2.29961 9.13333 2.24961 8.95C2.19961 8.76667 2.22461 8.59167 2.32461 8.425L3.97461 5.5C4.07461 5.31667 4.21628 5.19583 4.39961 5.1375C4.58294 5.07917 4.76628 5.09167 4.94961 5.175L7.27461 6.25C7.54128 6.03333 7.84961 5.825 8.19961 5.625C8.54961 5.425 8.88294 5.275 9.19961 5.175L9.59961 2.625C9.63294 2.44167 9.72044 2.29167 9.86211 2.175C10.0038 2.05833 10.1663 2 10.3496 2H13.6496C13.8329 2 13.9954 2.05833 14.1371 2.175C14.2788 2.29167 14.3663 2.44167 14.3996 2.625L14.7996 5.15C15.1163 5.26667 15.4538 5.42083 15.8121 5.6125C16.1704 5.80417 16.4746 6.01667 16.7246 6.25L19.0496 5.175C19.2329 5.09167 19.4163 5.07917 19.5996 5.1375C19.7829 5.19583 19.9246 5.31667 20.0246 5.5L21.6746 8.4C21.7746 8.56667 21.8038 8.74583 21.7621 8.9375C21.7204 9.12917 21.6163 9.28333 21.4496 9.4L19.2996 10.925C19.3329 11.0917 19.3538 11.2708 19.3621 11.4625C19.3704 11.6542 19.3746 11.8333 19.3746 12C19.3746 12.1667 19.3704 12.3417 19.3621 12.525C19.3538 12.7083 19.3329 12.8833 19.2996 13.05L21.4496 14.6C21.5996 14.7167 21.6996 14.8667 21.7496 15.05C21.7996 15.2333 21.7746 15.4083 21.6746 15.575L20.0246 18.5C19.9246 18.6833 19.7829 18.8042 19.5996 18.8625C19.4163 18.9208 19.2329 18.9083 19.0496 18.825L16.7246 17.75C16.4579 17.9667 16.1538 18.1792 15.8121 18.3875C15.4704 18.5958 15.1329 18.75 14.7996 18.85L14.3996 21.375C14.3663 21.5583 14.2788 21.7083 14.1371 21.825C13.9954 21.9417 13.8329 22 13.6496 22ZM11.9996 15.25C12.8996 15.25 13.6663 14.9333 14.2996 14.3C14.9329 13.6667 15.2496 12.9 15.2496 12C15.2496 11.1 14.9329 10.3333 14.2996 9.7C13.6663 9.06667 12.8996 8.75 11.9996 8.75C11.0996 8.75 10.3329 9.06667 9.69961 9.7C9.06628 10.3333 8.74961 11.1 8.74961 12C8.74961 12.9 9.06628 13.6667 9.69961 14.3C10.3329 14.9333 11.0996 15.25 11.9996 15.25Z" fill="#445A7A"/>
</svg>
