<svg width="24" height="24" viewBox="0 0 24 24" fill="none" xmlns="http://www.w3.org/2000/svg">
<path d="M12 0C5.37209 0 0 5.37209 0 12C0 18.6279 5.37209 24 12 24C18.6279 24 24 18.6279 24 12C23.9967 5.37209 18.6246 0 12 0ZM16.0864 20.588C16.8605 18.3522 17.5183 15.5316 17.2757 12.794C17.2757 12.794 12.3688 21.5083 12 21.5083C11.6312 21.5083 6.72425 12.794 6.72425 12.794C6.48173 15.5316 7.13953 18.3522 7.91362 20.588C4.70764 19.0598 2.48837 15.7874 2.48837 12C2.48837 8.07973 4.86047 4.71429 8.24917 3.25914C8.5814 8.21595 11.9967 12.1163 11.9967 12.1163C11.9967 12.1163 15.4153 8.21262 15.7475 3.25581C19.1362 4.71096 21.5083 8.07641 21.5083 11.9967C21.5083 15.7874 19.2924 19.0598 16.0864 20.588Z" fill="#475C7B"/>
</svg>
