<svg width="34" height="34" viewBox="0 0 34 34" fill="none" xmlns="http://www.w3.org/2000/svg">
<path d="M30.7769 8.07027L27.793 9.79303L16.2907 3.15211L8.30582 7.76209L17.3456 12.9811L19.8392 11.5415L12.8525 7.50772L15.8467 5.77896L25.296 11.2345L17.6182 15.6674H16.8178L16.8175 15.6672H16.0094L2.85465 8.07232L16.8196 0L30.7769 8.07027ZM17.6678 33.734V30.2784L29.1729 23.6358V20.7567L17.6678 27.3992V18.5363L18.478 17.133L31.6355 9.53648V12.994L20.1333 19.6348V22.5182L31.6355 15.8774V25.6716L17.6679 33.734H17.6678ZM4.46537 17.3009L13.5051 22.5199V19.6367L4.46537 14.4176V17.301V17.3009ZM2 9.53677L15.1578 17.1334L15.5646 17.8379L15.5649 17.838L15.9677 18.5357V23.9417L15.1578 25.3908L15.9677 27.395V33.7341L2.00015 25.6716V9.53662L2 9.53677ZM4.46537 20.7584V23.6376L13.5051 28.8566V27.366V25.9775L4.46537 20.7584Z" fill="#2A4A7A"/>
<path fill-rule="evenodd" clip-rule="evenodd" d="M15.8008 18.0384L16.208 17.3331L16.6152 16.6279H15.8008H14.9863L15.3935 17.3331L15.8008 18.0384Z" fill="#2A4A7A"/>
</svg>
